<svg width="40" height="40" viewBox="0 0 40 40" fill="none" xmlns="http://www.w3.org/2000/svg">
<rect width="40" height="40" rx="8" fill="url(#paint0_linear_907_2783)"/>
<rect x="9.92188" y="29.1797" width="21" height="3" rx="0.8234" fill="white"/>
<path fill-rule="evenodd" clip-rule="evenodd" d="M28.7159 20.25C28.0386 20.3173 27.554 19.564 27.7948 18.9274C28.26 17.6975 28.4557 16.344 28.3168 14.9467C27.8355 10.1076 23.5226 6.57486 18.6835 7.05606C13.8444 7.53727 10.3116 11.8502 10.7928 16.6894C10.9317 18.0866 11.3902 19.375 12.0885 20.4893C12.4499 21.066 12.1231 21.9 11.4459 21.9673L10.2168 22.0896C9.76425 22.1346 9.43388 22.5379 9.47888 22.9904L9.72332 25.4485C9.76832 25.901 10.1716 26.2313 10.6242 26.1863L30.2888 24.2309C30.7413 24.1859 31.0716 23.7826 31.0266 23.33L30.7822 20.872C30.7372 20.4194 30.3339 20.0891 29.8814 20.1341L28.7159 20.25Z" fill="white"/>
<defs>
<linearGradient id="paint0_linear_907_2783" x1="20" y1="0" x2="20" y2="50.5" gradientUnits="userSpaceOnUse">
<stop stop-color="#FF9C82"/>
<stop offset="1" stop-color="#FF8B6D"/>
</linearGradient>
</defs>
</svg>
